<?xml version="1.0" encoding="UTF-8"?>
<svg version="1.1" xmlns="http://www.w3.org/2000/svg" width="402" height="280">
<path d="M0 0 C24.72973044 21.40049796 42.0232262 53.97510005 45.03125 86.5390625 C46.20134867 108.06107741 42.67320926 131.53028484 28.09155273 148.26660156 C17.71160558 159.72885992 4.51778721 168.73474325 -11.34716797 169.6809082 C-44.50583459 170.87573336 -71.55883532 157.92369797 -95.6796875 135.640625 C-97.6912298 133.79385067 -99.74877198 132.03918817 -101.84375 130.2890625 C-112.16671154 121.25387484 -120.70165865 110.42267435 -128.96875 99.5390625 C-129.50661133 98.8368457 -130.04447266 98.13462891 -130.59863281 97.41113281 C-132.26935372 95.22886824 -133.93296122 93.04139286 -135.59375 90.8515625 C-136.11517578 90.16795654 -136.63660156 89.48435059 -137.17382812 88.7800293 C-137.65529297 88.13976807 -138.13675781 87.49950684 -138.6328125 86.83984375 C-139.06029785 86.27434814 -139.4877832 85.70885254 -139.92822266 85.1262207 C-140.96875 83.5390625 -140.96875 83.5390625 -141.96875 80.5390625 C-140.40027656 78.02070982 -138.81240137 75.70987314 -137.03125 73.3515625 C-136.54978516 72.69736328 -136.06832031 72.04316406 -135.57226562 71.36914062 C-134.38028616 69.75229719 -133.17568447 68.14477322 -131.96875 66.5390625 C-128.27990163 66.76463956 -127.06287557 67.44579262 -124.390625 70.09375 C-123.48748104 71.19032902 -122.59745762 72.29780649 -121.71875 73.4140625 C-121.24276367 73.99687988 -120.76677734 74.57969727 -120.27636719 75.18017578 C-118.82838018 76.95707512 -117.39722881 78.74646164 -115.96875 80.5390625 C-109.13884102 89.01595428 -109.13884102 89.01595428 -101.62890625 96.87890625 C-99.90196125 98.60585125 -98.35001379 100.41788641 -96.78125 102.2890625 C-78.90733236 122.76139107 -51.70460273 140.42683841 -24.21875 143.5390625 C-15.23985607 143.90622917 -6.69804392 142.22411981 0.2890625 136.32421875 C11.48875882 124.84829673 13.64274215 109.61158422 14.13671875 94.26171875 C13.35908158 71.8830491 2.02544737 51.33673319 -11.96875 34.5390625 C-12.38125 34.02504883 -12.79375 33.51103516 -13.21875 32.98144531 C-24.30287403 19.288789 -42.36504133 8.59241116 -59.96875 6.5390625 C-78.93460428 5.01810699 -96.35083386 11.66047882 -110.87109375 23.7109375 C-111.56332031 24.31421875 -112.25554687 24.9175 -112.96875 25.5390625 C-114.14630859 26.53679688 -114.14630859 26.53679688 -115.34765625 27.5546875 C-127.59790966 38.21374994 -137.30924395 50.5825993 -146.96875 63.5390625 C-148.46875 65.5390625 -149.96875 67.5390625 -151.46875 69.5390625 C-152.17257813 70.48007813 -152.87640625 71.42109375 -153.6015625 72.390625 C-158.6777493 79.14212098 -163.81793799 85.84441464 -168.96875 92.5390625 C-169.46197754 93.18230469 -169.95520508 93.82554688 -170.46337891 94.48828125 C-175.94456602 101.62448392 -181.56664381 108.47924983 -187.69140625 115.078125 C-189.72777154 117.27865696 -191.70136853 119.51634953 -193.65625 121.7890625 C-215.29610014 146.61421769 -247.61386282 168.6629594 -280.96875 172.5390625 C-299.58152862 173.54757917 -316.46766906 171.95990233 -331.21875 159.3515625 C-347.24063782 143.97055019 -355.94253389 122.56588301 -356.96875 100.5390625 C-357.19734843 88.40022914 -355.51273001 77.12368533 -351.96875 65.5390625 C-351.68128906 64.5903125 -351.39382813 63.6415625 -351.09765625 62.6640625 C-340.61610505 31.35916292 -317.35460014 3.02402457 -287.78125 -11.8984375 C-266.49829711 -22.19878365 -240.86575129 -25.56254607 -217.96875 -18.4609375 C-202.60796116 -13.08350992 -189.74944647 -4.63481301 -177.96875 6.5390625 C-175.65583906 8.56442235 -173.3138051 10.55086361 -170.96875 12.5390625 C-171.52723826 16.72264727 -174.01321302 19.56535819 -176.53125 22.7890625 C-177.16836914 23.62050781 -177.16836914 23.62050781 -177.81835938 24.46875 C-178.86273341 25.82995661 -179.91497464 27.18512083 -180.96875 28.5390625 C-185.42494846 28.04480105 -187.33083328 26.60910607 -190.46875 23.4765625 C-207.26677994 7.8447178 -227.45620282 1.64695072 -249.95117188 2.43847656 C-263.88553958 3.13317156 -276.36000742 9.82416504 -286.96875 18.5390625 C-287.81050781 19.22871094 -288.65226562 19.91835938 -289.51953125 20.62890625 C-308.38279612 36.85190076 -322.39671898 61.13127567 -324.83984375 86.23828125 C-325.75176243 102.51464806 -324.55468136 118.21934107 -314.09375 131.4140625 C-308.56989713 137.40293359 -301.67780774 139.97992798 -293.6953125 140.76171875 C-273.84467101 141.50049667 -254.99627189 130.59878033 -239.96875 118.5390625 C-239.39318359 118.08160645 -238.81761719 117.62415039 -238.22460938 117.15283203 C-215.79219829 99.14136194 -198.71353133 75.51006964 -182.0078125 52.328125 C-173.7528783 41.03689316 -165.12462529 30.1103388 -155.96875 19.5390625 C-155.00001953 18.38470703 -155.00001953 18.38470703 -154.01171875 17.20703125 C-150.62228811 13.20551381 -147.05109445 9.69068838 -143.04296875 6.30859375 C-141.66240614 5.13082565 -140.30996627 3.91926005 -138.98828125 2.67578125 C-98.24829377 -35.46540778 -42.26494509 -35.03541501 0 0 Z " fill="#FFFFFF" transform="translate(356.96875,26.4609375)"/>
<path d="M0 0 C1.14984375 -0.02449219 2.2996875 -0.04898438 3.484375 -0.07421875 C5.14339844 -0.08001953 5.14339844 -0.08001953 6.8359375 -0.0859375 C7.84962402 -0.09415527 8.86331055 -0.10237305 9.90771484 -0.11083984 C13.45169835 0.5228104 14.45841653 1.5207227 16.625 4.375 C18.16479492 7.56713867 18.16479492 7.56713867 19.60546875 11.29296875 C19.86378983 11.95081863 20.1221109 12.60866852 20.38825989 13.28645325 C21.20627086 15.37475869 22.00990077 17.46822891 22.8125 19.5625 C23.62853038 21.66631706 24.44748729 23.76895086 25.26887512 25.87068176 C26.00912772 27.76869988 26.74145064 29.66980496 27.47338867 31.57104492 C28.35731264 34.2357954 28.35731264 34.2357954 29.625 35.375 C30.13885254 34.10438721 30.13885254 34.10438721 30.66308594 32.80810547 C31.94748358 29.64134112 33.23784906 26.47714448 34.53222656 23.31445312 C35.08929451 21.94986258 35.64402495 20.5843152 36.19628906 19.21777344 C36.9943909 17.2441281 37.80107177 15.2741733 38.609375 13.3046875 C39.33205566 11.52940674 39.33205566 11.52940674 40.06933594 9.71826172 C41.68432462 6.24750606 43.15716607 3.31234711 45.625 0.375 C48.44995117 -0.32202148 48.44995117 -0.32202148 51.66796875 -0.24609375 C53.40143555 -0.22385742 53.40143555 -0.22385742 55.16992188 -0.20117188 C56.97299805 -0.1325293 56.97299805 -0.1325293 58.8125 -0.0625 C60.02615234 -0.04380859 61.23980469 -0.02511719 62.49023438 -0.00585938 C71.42922321 0.17922321 71.42922321 0.17922321 72.625 1.375 C72.71891296 3.27743762 72.74243658 5.18338459 72.73852539 7.08813477 C72.73841209 8.91992027 72.73841209 8.91992027 72.73829651 10.78871155 C72.73318911 12.13127686 72.72797311 13.47384175 72.72265625 14.81640625 C72.72079199 16.18261158 72.71936813 17.54881757 72.71836853 18.9150238 C72.71454394 22.51701695 72.70471417 26.11897 72.69366455 29.72094727 C72.68344916 33.39403745 72.67887064 37.06713409 72.67382812 40.74023438 C72.66309184 47.95184123 72.64601614 55.163415 72.625 62.375 C69.21808509 64.07845745 65.44232483 63.60162366 61.6875 63.625 C60.86314453 63.645625 60.03878906 63.66625 59.18945312 63.6875 C58.39603516 63.69265625 57.60261719 63.6978125 56.78515625 63.703125 C55.69666382 63.71714355 55.69666382 63.71714355 54.58618164 63.73144531 C52.00869049 63.26298557 51.15920174 62.47841709 49.625 60.375 C49.19262695 58.38208008 49.19262695 58.38208008 49.11328125 56.14453125 C49.07783203 55.34208984 49.04238281 54.53964844 49.00585938 53.71289062 C48.97202148 52.46282227 48.97202148 52.46282227 48.9375 51.1875 C48.90333984 50.34251953 48.86917969 49.49753906 48.83398438 48.62695312 C48.75158529 46.54343351 48.68661355 44.45923784 48.625 42.375 C48.42865967 42.90456299 48.23231934 43.43412598 48.0300293 43.97973633 C47.13262179 46.38556904 46.22272334 48.78648834 45.3125 51.1875 C45.00376953 52.02087891 44.69503906 52.85425781 44.37695312 53.71289062 C44.07080078 54.51533203 43.76464844 55.31777344 43.44921875 56.14453125 C43.03289185 57.25211792 43.03289185 57.25211792 42.6081543 58.38208008 C41.52012332 60.58759208 40.57383483 61.87337697 38.625 63.375 C35.67656855 64.01669329 32.69819119 63.88451997 29.6875 63.875 C28.87603516 63.90335937 28.06457031 63.93171875 27.22851562 63.9609375 C23.33690181 63.97370736 21.32432703 63.96890085 18.29296875 61.39453125 C16.17027442 57.55180825 14.47094774 53.64826321 12.875 49.5625 C12.55917969 48.77423828 12.24335937 47.98597656 11.91796875 47.17382812 C11.14600689 45.24392348 10.38444034 43.30986625 9.625 41.375 C9.60518066 41.97038574 9.58536133 42.56577148 9.56494141 43.17919922 C9.46983874 45.86992153 9.36010158 48.55985148 9.25 51.25 C9.20359375 52.65572266 9.20359375 52.65572266 9.15625 54.08984375 C9.11757812 54.98574219 9.07890625 55.88164062 9.0390625 56.8046875 C9.0076416 57.63210449 8.9762207 58.45952148 8.94384766 59.31201172 C8.625 61.375 8.625 61.375 6.625 63.375 C3.47840068 63.8206098 0.29957507 63.69911997 -2.875 63.6875 C-3.75542969 63.70361328 -4.63585937 63.71972656 -5.54296875 63.73632812 C-6.80560547 63.73729492 -6.80560547 63.73729492 -8.09375 63.73828125 C-8.86654297 63.74126221 -9.63933594 63.74424316 -10.43554688 63.74731445 C-11.39557617 63.5630188 -11.39557617 63.5630188 -12.375 63.375 C-14.64930134 59.963548 -14.62752522 58.74808736 -14.63378906 54.74194336 C-14.64009338 53.58742172 -14.64639771 52.43290009 -14.65289307 51.24339294 C-14.6488446 49.99647171 -14.64479614 48.74955048 -14.640625 47.46484375 C-14.64253845 46.18646133 -14.6444519 44.90807892 -14.64642334 43.59095764 C-14.64778538 40.88659157 -14.6450893 38.18258611 -14.63574219 35.47827148 C-14.62433629 32.00894391 -14.63091656 28.53992538 -14.64288712 25.07060909 C-14.65184222 21.76450946 -14.6455772 18.45844741 -14.640625 15.15234375 C-14.64467346 13.90339828 -14.64872192 12.65445282 -14.65289307 11.36766052 C-14.64658875 10.21629105 -14.64028442 9.06492157 -14.63378906 7.87866211 C-14.63219788 6.86178818 -14.63060669 5.84491425 -14.62896729 4.79722595 C-13.90461061 -2.11136286 -5.21063954 0.00580249 0 0 Z " fill="#FFFFFF" transform="translate(71.375,214.625)"/>
<path d="M0 0 C1.20249138 -0.01226624 1.20249138 -0.01226624 2.42927551 -0.02478027 C5.0944442 -0.04968527 7.75955938 -0.06616464 10.42480469 -0.08056641 C11.33334953 -0.08589008 12.24189438 -0.09121376 13.17797089 -0.09669876 C17.98826759 -0.12345458 22.79853815 -0.14282026 27.60888672 -0.15722656 C32.58031827 -0.17386598 37.55108578 -0.21863065 42.52226639 -0.26959801 C46.34156054 -0.30324584 50.16069679 -0.3148014 53.98012543 -0.32045364 C55.8125795 -0.32717471 57.64502287 -0.34241898 59.47733307 -0.36634445 C62.04403264 -0.39794236 64.60893848 -0.39804117 67.17578125 -0.390625 C68.31062706 -0.415233 68.31062706 -0.415233 69.46839905 -0.44033813 C73.46454874 -0.39310631 75.14772483 0.02839501 78.27024841 2.60978699 C79.92500928 4.66831237 81.45568313 6.6272174 82.80371094 8.89208984 C83.19365234 9.54371094 83.58359375 10.19533203 83.98535156 10.86669922 C84.37271484 11.53121094 84.76007813 12.19572266 85.15917969 12.88037109 C85.56587891 13.55648437 85.97257812 14.23259766 86.39160156 14.92919922 C89.34667969 19.92054967 89.34667969 19.92054967 89.34667969 22.19287109 C90.00667969 22.19287109 90.66667969 22.19287109 91.34667969 22.19287109 C91.70439453 21.19320312 91.70439453 21.19320312 92.06933594 20.17333984 C93.67865954 16.41825144 95.68396609 13.00346515 97.78417969 9.50537109 C98.37682617 8.49120117 98.37682617 8.49120117 98.98144531 7.45654297 C100.88767623 4.26891889 102.21453285 2.28096899 105.34667969 0.19287109 C107.52319336 -0.03417969 107.52319336 -0.03417969 110.01464844 -0.00244141 C110.90732422 0.00400391 111.8 0.01044922 112.71972656 0.01708984 C114.11288086 0.04222656 114.11288086 0.04222656 115.53417969 0.06787109 C116.47455078 0.07689453 117.41492188 0.08591797 118.38378906 0.09521484 C120.70500937 0.11878053 123.02571612 0.15167993 125.34667969 0.19287109 C126.44702148 1.98706055 126.44702148 1.98706055 127.34667969 4.19287109 C126.07216257 6.80702665 124.78129434 8.99374827 123.15917969 11.38037109 C122.70663818 12.07364502 122.25409668 12.76691895 121.7878418 13.48120117 C120.82119627 14.9597268 119.84773378 16.43381377 118.86816406 17.90380859 C116.83313786 20.96549115 114.84274732 24.05511528 112.85131836 27.14526367 C111.47163716 29.28357099 110.08339715 31.41611933 108.69433594 33.54833984 C108.28763672 34.18513672 107.8809375 34.82193359 107.46191406 35.47802734 C106.54051615 36.89481783 105.56194818 38.27424835 104.56933594 39.64208984 C102.80529032 43.32235115 102.81807298 46.78312338 102.72167969 50.81787109 C102.4491233 58.88554027 102.4491233 58.88554027 101.34667969 62.19287109 C97.93328969 63.89956609 94.17215109 63.50344668 90.40917969 63.56787109 C89.58482422 63.60525391 88.76046875 63.64263672 87.91113281 63.68115234 C85.62371946 63.71459949 83.58504055 63.66692753 81.34667969 63.19287109 C79.23730469 61.07177734 79.23730469 61.07177734 78.34667969 58.19287109 C78.54589844 55.19677734 78.54589844 55.19677734 79.03417969 51.75537109 C79.33919025 40.65516526 72.3959839 32.65214033 66.23681641 23.92138672 C63.13035685 19.43704262 60.24088643 14.81603387 57.34667969 10.19287109 C56.88261719 11.64693359 56.88261719 11.64693359 56.40917969 13.13037109 C55.34667969 16.19287109 55.34667969 16.19287109 54.34667969 17.19287109 C52.93097846 17.2793872 51.51108468 17.29992013 50.09277344 17.29052734 C49.23876953 17.28730469 48.38476562 17.28408203 47.50488281 17.28076172 C46.60705078 17.27238281 45.70921875 17.26400391 44.78417969 17.25537109 C43.88248047 17.25085938 42.98078125 17.24634766 42.05175781 17.24169922 C39.81666655 17.22987334 37.58170532 17.2133933 35.34667969 17.19287109 C35.35112091 17.73966522 35.35556213 18.28645935 35.36013794 18.849823 C35.40429325 24.52713413 35.43451348 30.20439671 35.45654297 35.88183594 C35.4666172 38.00229879 35.48027702 40.1227477 35.49755859 42.24316406 C35.52174458 45.28633052 35.53314838 48.32931376 35.54199219 51.37255859 C35.55231476 52.32468231 35.56263733 53.27680603 35.57327271 54.25778198 C35.5734993 55.57892502 35.5734993 55.57892502 35.57373047 56.92675781 C35.57817169 57.70397186 35.58261292 58.48118591 35.58718872 59.2819519 C35.34667969 61.19287109 35.34667969 61.19287109 33.34667969 63.19287109 C31.40722656 63.45166016 31.40722656 63.45166016 29.06542969 63.45849609 C28.22367188 63.46107422 27.38191406 63.46365234 26.51464844 63.46630859 C25.19400391 63.45470703 25.19400391 63.45470703 23.84667969 63.44287109 C22.52603516 63.45447266 22.52603516 63.45447266 21.17871094 63.46630859 C20.33695313 63.46373047 19.49519531 63.46115234 18.62792969 63.45849609 C17.85513672 63.45624023 17.08234375 63.45398438 16.28613281 63.45166016 C14.34667969 63.19287109 14.34667969 63.19287109 12.34667969 61.19287109 C12.10617065 59.2819519 12.10617065 59.2819519 12.11962891 56.92675781 C12.11977997 56.04599579 12.11993103 55.16523376 12.12008667 54.25778198 C12.13040924 53.30565826 12.14073181 52.35353455 12.15136719 51.37255859 C12.15419708 50.39876251 12.15702698 49.42496643 12.15994263 48.42166138 C12.17116056 45.30360761 12.19626799 42.18583842 12.22167969 39.06787109 C12.23170741 36.95719815 12.24083362 34.84652072 12.24902344 32.73583984 C12.27110511 27.55475274 12.30459839 22.37383225 12.34667969 17.19287109 C11.78158691 17.20334473 11.21649414 17.21381836 10.63427734 17.22460938 C8.08012316 17.26611898 5.52603987 17.29218069 2.97167969 17.31787109 C2.08222656 17.33462891 1.19277344 17.35138672 0.27636719 17.36865234 C-0.57441406 17.37509766 -1.42519531 17.38154297 -2.30175781 17.38818359 C-3.4800415 17.40389404 -3.4800415 17.40389404 -4.68212891 17.41992188 C-6.65332031 17.19287109 -6.65332031 17.19287109 -8.65332031 15.19287109 C-8.88378906 11.97021484 -8.88378906 11.97021484 -8.84082031 8.13037109 C-8.834375 6.86064453 -8.82792969 5.59091797 -8.82128906 4.28271484 C-8.50762312 -1.48727953 -4.78231023 0.0266424 0 0 Z " fill="#FFFFFF" transform="translate(224.6533203125,214.80712890625)"/>
<path d="M0 0 C4.47745664 3.7327462 7.34042107 6.96671066 7.9375 12.9375 C7.5625 16.1875 7.5625 16.1875 5.5625 18.1875 C-9.5763807 19.76985537 -9.5763807 19.76985537 -14.8671875 16.84375 C-15.92155859 15.7742444 -16.9456735 14.67363602 -17.9296875 13.5390625 C-20.45583749 11.27468971 -23.0668349 11.55122293 -26.32421875 11.5859375 C-29.16313039 12.39405653 -30.43169234 14.08023534 -32.4375 16.1875 C-31.70225098 16.31278076 -30.96700195 16.43806152 -30.20947266 16.56713867 C-26.82410921 17.15352723 -23.44351947 17.76408224 -20.0625 18.375 C-18.90621094 18.57158203 -17.74992187 18.76816406 -16.55859375 18.97070312 C-8.04625855 20.53370253 0.76376432 22.53464682 6.625 29.375 C10.20603755 34.57328032 10.28607174 38.9614176 9.5625 45.1875 C7.58524393 50.69425055 3.97625269 54.35945848 -1.09765625 57.15625 C-14.42868955 63.03169706 -30.77667368 63.0768306 -44.4375 58.1875 C-50.08610868 55.37976049 -54.78655925 52.06567297 -57.4375 46.1875 C-57.78195843 43.14816092 -57.82743659 40.22389146 -57.4375 37.1875 C-55.18604186 34.93604186 -50.14567274 35.86118484 -47.125 35.8125 C-46.25681641 35.77511719 -45.38863281 35.73773438 -44.49414062 35.69921875 C-42.0431676 35.66536034 -39.84078372 35.69913068 -37.4375 36.1875 C-35.00390625 38.62890625 -35.00390625 38.62890625 -33.4375 41.1875 C-27.37824992 44.07941481 -20.87388433 43.79659608 -14.4375 42.1875 C-14.4375 40.8675 -14.4375 39.5475 -14.4375 38.1875 C-15.08187012 38.08727539 -15.72624023 37.98705078 -16.39013672 37.88378906 C-19.36630919 37.41378295 -22.33926843 36.92575126 -25.3125 36.4375 C-26.83230469 36.20160156 -26.83230469 36.20160156 -28.3828125 35.9609375 C-38.1052598 34.34052962 -47.7542099 31.91991122 -54.4375 24.1875 C-57.22875967 19.07019061 -56.74038291 13.72475236 -55.4375 8.1875 C-52.93171731 1.68013576 -47.47996532 -0.74942641 -41.47265625 -3.6484375 C-29.16932445 -8.36708985 -10.9365409 -7.63154228 0 0 Z " fill="#FFFFFF" transform="translate(207.4375,218.8125)"/>
</svg>
